<svg id="visual" viewBox="0 0 900 600" width="900" height="600" xmlns="http://www.w3.org/2000/svg" xmlns:xlink="http://www.w3.org/1999/xlink" version="1.1"><path d="M0 527L16.7 517.8C33.3 508.7 66.7 490.3 100 484.2C133.3 478 166.7 484 200 493.3C233.3 502.7 266.7 515.3 300 524.7C333.3 534 366.7 540 400 536.2C433.3 532.3 466.7 518.7 500 518.7C533.3 518.7 566.7 532.3 600 534.3C633.3 536.3 666.7 526.7 700 522.7C733.3 518.7 766.7 520.3 800 511C833.3 501.7 866.7 481.3 883.3 471.2L900 461L900 601L883.3 601C866.7 601 833.3 601 800 601C766.7 601 733.3 601 700 601C666.7 601 633.3 601 600 601C566.7 601 533.3 601 500 601C466.7 601 433.3 601 400 601C366.7 601 333.3 601 300 601C266.7 601 233.3 601 200 601C166.7 601 133.3 601 100 601C66.7 601 33.3 601 16.7 601L0 601Z" fill="#f86b69"></path><path d="M0 511L16.7 516.8C33.3 522.7 66.7 534.3 100 538.7C133.3 543 166.7 540 200 541.3C233.3 542.7 266.7 548.3 300 542C333.3 535.7 366.7 517.3 400 518C433.3 518.7 466.7 538.3 500 547.5C533.3 556.7 566.7 555.3 600 545C633.3 534.7 666.7 515.3 700 509.3C733.3 503.3 766.7 510.7 800 512.8C833.3 515 866.7 512 883.3 510.5L900 509L900 601L883.3 601C866.7 601 833.3 601 800 601C766.7 601 733.3 601 700 601C666.7 601 633.3 601 600 601C566.7 601 533.3 601 500 601C466.7 601 433.3 601 400 601C366.7 601 333.3 601 300 601C266.7 601 233.3 601 200 601C166.7 601 133.3 601 100 601C66.7 601 33.3 601 16.7 601L0 601Z" fill="#e64f6d"></path><path d="M0 575L16.7 572.7C33.3 570.3 66.7 565.7 100 565.5C133.3 565.3 166.7 569.7 200 570.5C233.3 571.3 266.7 568.7 300 564C333.3 559.3 366.7 552.7 400 548.2C433.3 543.7 466.7 541.3 500 543.2C533.3 545 566.7 551 600 554.7C633.3 558.3 666.7 559.7 700 560.3C733.3 561 766.7 561 800 563.2C833.3 565.3 866.7 569.7 883.3 571.8L900 574L900 601L883.3 601C866.7 601 833.3 601 800 601C766.7 601 733.3 601 700 601C666.7 601 633.3 601 600 601C566.7 601 533.3 601 500 601C466.7 601 433.3 601 400 601C366.7 601 333.3 601 300 601C266.7 601 233.3 601 200 601C166.7 601 133.3 601 100 601C66.7 601 33.3 601 16.7 601L0 601Z" fill="#d03472"></path></svg>