<?xml version="1.0" standalone="no"?>
<!DOCTYPE svg PUBLIC "-//W3C//DTD SVG 20010904//EN"
 "http://www.w3.org/TR/2001/REC-SVG-20010904/DTD/svg10.dtd">
<svg version="1.0" xmlns="http://www.w3.org/2000/svg"
 width="300.000000pt" height="300.000000pt" viewBox="0 0 300.000000 300.000000"
 preserveAspectRatio="xMidYMid meet">
<metadata>
Created by potrace 1.14, written by Peter Selinger 2001-2017
</metadata>
<g transform="translate(0.000000,300.000000) scale(0.100000,-0.100000)"
fill="#000000" stroke="none">
<path d="M574 2985 c-258 -56 -459 -240 -546 -500 l-23 -70 -2 -895 c-2 -860
-1 -898 18 -970 65 -250 240 -436 486 -516 l88 -29 905 0 905 0 88 29 c117 38
207 94 293 180 100 101 155 195 192 328 16 58 17 140 17 963 l0 900 -28 85
c-15 47 -42 111 -60 142 -93 168 -264 297 -457 347 -71 19 -117 20 -945 20
-683 -1 -883 -3 -931 -14z"/>
</g>
</svg>
