<svg width="50" height="50" viewBox="0 0 50 50" fill="none" xmlns="http://www.w3.org/2000/svg">
<rect width="50" height="50" rx="18" fill="#2D2D2D"/>
<path d="M33 32V30C33 28.9391 32.5786 27.9217 31.8284 27.1716C31.0783 26.4214 30.0609 26 29 26H21C19.9391 26 18.9217 26.4214 18.1716 27.1716C17.4214 27.9217 17 28.9391 17 30V32" stroke="white" stroke-width="2" stroke-linecap="round" stroke-linejoin="round"/>
<path d="M25 22C27.2091 22 29 20.2091 29 18C29 15.7909 27.2091 14 25 14C22.7909 14 21 15.7909 21 18C21 20.2091 22.7909 22 25 22Z" stroke="white" stroke-width="2" stroke-linecap="round" stroke-linejoin="round"/>
</svg>
